HIERARCHY
ROOT hip
{
  OFFSET 0 0 0
  CHANNELS 6 Xposition Yposition Zposition Zrotation Yrotation Xrotation
  JOINT abdomen
  {
    OFFSET 0 20.6881 -0.73152
    CHANNELS 3 Zrotation Xrotation Yrotation
    JOINT chest
    {
      OFFSET 0 11.7043 -0.48768
      CHANNELS 3 Zrotation Xrotation Yrotation
      JOINT neck
      {
        OFFSET 0 22.1894 -2.19456
        CHANNELS 3 Zrotation Xrotation Yrotation
        JOINT head
        {
          OFFSET -0.24384 7.07133 1.2192
          CHANNELS 3 Zrotation Xrotation Yrotation
          JOINT leftEye
          {
            OFFSET 4.14528 8.04674 8.04672
            CHANNELS 3 Zrotation Xrotation Yrotation
            End Site
            {
              OFFSET 1 0 0
            }
          }
          JOINT rightEye
          {
            OFFSET -3.6576 8.04674 8.04672
            CHANNELS 3 Zrotation Xrotation Yrotation
            End Site
            {
              OFFSET 1 0 0
            }
          }
        }
      }
      JOINT rCollar
      {
        OFFSET -2.68224 19.2634 -4.8768
        CHANNELS 3 Zrotation Xrotation Yrotation
        JOINT rShldr
        {
          OFFSET -8.77824 -1.95073 1.46304
          CHANNELS 3 Zrotation Xrotation Yrotation
          JOINT rForeArm
          {
            OFFSET -28.1742 -1.7115 0.48768
            CHANNELS 3 Zrotation Xrotation Yrotation
            JOINT rHand
            {
              OFFSET -22.5879 0.773209 7.07136
              CHANNELS 3 Zrotation Xrotation Yrotation
              JOINT rThumb1
              {
                OFFSET -1.2192 -0.487915 3.41376
                CHANNELS 3 Zrotation Xrotation Yrotation
                JOINT rThumb2
                {
                  OFFSET -3.37035 -0.52449 3.41376
                  CHANNELS 3 Zrotation Xrotation Yrotation
                  End Site
                  {
                    OFFSET -1.78271 -1.18214 1.43049
                  }
                }
              }
              JOINT rIndex1
              {
                OFFSET -7.75947 0.938293 5.60832
                CHANNELS 3 Zrotation Xrotation Yrotation
                JOINT rIndex2
                {
                  OFFSET -2.54057 -0.884171 1.56538
                  CHANNELS 3 Zrotation Xrotation Yrotation
                  End Site
                  {
                    OFFSET -1.62519 -0.234802 1.16502
                  }
                }
              }
              JOINT rMid1
              {
                OFFSET -8.24714 1.18213 3.41376
                CHANNELS 3 Zrotation Xrotation Yrotation
                JOINT rMid2
                {
                  OFFSET -3.10165 -0.590103 1.0647
                  CHANNELS 3 Zrotation Xrotation Yrotation
                  End Site
                  {
                    OFFSET -2.48547 -0.328903 0.83742
                  }
                }
              }
              JOINT rRing1
              {
                OFFSET -8.82822 0.546677 1.51678
                CHANNELS 3 Zrotation Xrotation Yrotation
                JOINT rRing2
                {
                  OFFSET -2.60934 -0.819778 -0.0198488
                  CHANNELS 3 Zrotation Xrotation Yrotation
                  End Site
                  {
                    OFFSET -2.33842 -0.294052 0.168128
                  }
                }
              }
              JOINT rPinky1
              {
                OFFSET -8.27202 -0.0477905 -0.4584
                CHANNELS 3 Zrotation Xrotation Yrotation
                JOINT rPinky2
                {
                  OFFSET -1.82734 -0.647385 -0.700984
                  CHANNELS 3 Zrotation Xrotation Yrotation
                  End Site
                  {
                    OFFSET -1.69225 -0.51767 -0.607171
                  }
                }
              }
            }
          }
        }
      }
      JOINT lCollar
      {
        OFFSET 2.68224 19.2634 -4.8768
        CHANNELS 3 Zrotation Xrotation Yrotation
        JOINT lShldr
        {
          OFFSET 8.77824 -1.95073 1.46304
          CHANNELS 3 Zrotation Xrotation Yrotation
          JOINT lForeArm
          {
            OFFSET 28.1742 -1.7115 0.48768
            CHANNELS 3 Zrotation Xrotation Yrotation
            JOINT lHand
            {
              OFFSET 22.5879 0.773209 7.07136
              CHANNELS 3 Zrotation Xrotation Yrotation
              JOINT lThumb1
              {
                OFFSET 1.2192 -0.487915 3.41376
                CHANNELS 3 Zrotation Xrotation Yrotation
                JOINT lThumb2
                {
                  OFFSET 3.37035 -0.52449 3.41376
                  CHANNELS 3 Zrotation Xrotation Yrotation
                  End Site
                  {
                    OFFSET 1.78271 -1.18214 1.43049
                  }
                }
              }
              JOINT lIndex1
              {
                OFFSET 7.75947 0.938293 5.60832
                CHANNELS 3 Zrotation Xrotation Yrotation
                JOINT lIndex2
                {
                  OFFSET 2.54057 -0.884171 1.56538
                  CHANNELS 3 Zrotation Xrotation Yrotation
                  End Site
                  {
                    OFFSET 1.62519 -0.234802 1.16502
                  }
                }
              }
              JOINT lMid1
              {
                OFFSET 8.24714 1.18213 3.41376
                CHANNELS 3 Zrotation Xrotation Yrotation
                JOINT lMid2
                {
                  OFFSET 3.10165 -0.590103 1.0647
                  CHANNELS 3 Zrotation Xrotation Yrotation
                  End Site
                  {
                    OFFSET 2.48547 -0.328903 0.83742
                  }
                }
              }
              JOINT lRing1
              {
                OFFSET 8.82822 0.546677 1.51678
                CHANNELS 3 Zrotation Xrotation Yrotation
                JOINT lRing2
                {
                  OFFSET 2.60934 -0.819778 -0.0198488
                  CHANNELS 3 Zrotation Xrotation Yrotation
                  End Site
                  {
                    OFFSET 2.33842 -0.294052 0.168128
                  }
                }
              }
              JOINT lPinky1
              {
                OFFSET 8.27202 -0.0477905 -0.4584
                CHANNELS 3 Zrotation Xrotation Yrotation
                JOINT lPinky2
                {
                  OFFSET 1.82734 -0.647385 -0.700984
                  CHANNELS 3 Zrotation Xrotation Yrotation
                  End Site
                  {
                    OFFSET 1.69225 -0.51767 -0.607171
                  }
                }
              }
            }
          }
        }
      }
    }
  }
  JOINT rButtock
  {
    OFFSET -8.77824 4.35084 1.2192
    CHANNELS 3 Zrotation Xrotation Yrotation
    JOINT rThigh
    {
      OFFSET 0 -1.70687 -2.19456
      CHANNELS 3 Zrotation Xrotation Yrotation
      JOINT rShin
      {
        OFFSET 0 -36.8199 0.73152
        CHANNELS 3 Zrotation Xrotation Yrotation
        JOINT rFoot
        {
          OFFSET 0.73152 -45.1104 -5.12064
          CHANNELS 3 Zrotation Xrotation Yrotation
          End Site
          {
            OFFSET -1.1221 -3.69964 12.103
          }
        }
      }
    }
  }
  JOINT lButtock
  {
    OFFSET 8.77824 4.35084 1.2192
    CHANNELS 3 Zrotation Xrotation Yrotation
    JOINT lThigh
    {
      OFFSET 0 -1.70687 -2.19456
      CHANNELS 3 Zrotation Xrotation Yrotation
      JOINT lShin
      {
        OFFSET 0 -36.8199 0.73152
        CHANNELS 3 Zrotation Xrotation Yrotation
        JOINT lFoot
        {
          OFFSET -0.73152 -45.1104 -5.12064
          CHANNELS 3 Zrotation Xrotation Yrotation
          End Site
          {
            OFFSET 1.1221 -3.69964 12.103
          }
        }
      }
    }
  }
}
MOTION
Frames:	4
Frame Time:	0.03333
-0.24137869477272034 50.24977922439575 0.225908774882555 -3.9209556579589844 1.3799055814743042 2.6849400997161865 -1.8904050588607788 12.836687088012695 3.239086151123047 2.422271490097046 -9.029284477233887 1.3866146802902222 -4.201580047607422 13.40434741973877 -2.9692225456237793 7.356149196624756 -20.13230323791504 -3.73098087310791 -0.1095689907670021 0.09952853620052338 0.08601976931095123 -0.021972978487610817 -0.037210285663604736 -0.00047462948714382946 -0.0025439199525862932 0.15283286571502686 -0.06297951936721802 30.622638702392578 23.008386611938477 16.712190628051758 -26.166133880615234 -20.12098503112793 43.66397476196289 -0.2162827104330063 -9.980266571044922 -1.7632852792739868 -0.027573423460125923 0.0031525541562587023 -0.013505888171494007 -0.11261899769306183 -0.14531461894512177 0.2205090969800949 0.11849042028188705 0.005019884556531906 -0.02784019522368908 6.73856782913208 4.9915289878845215 0.33755216002464294 0.033932484686374664 0.13449503481388092 -0.24244624376296997 3.02786922454834 0.9027121067047119 0.10265935957431793 0.22404754161834717 -0.11241863667964935 -0.04163398593664169 9.321843147277832 0.4542531669139862 0.02802438475191593 -0.03764206916093826 -0.2534876763820648 -0.05356774106621742 2.1809678077697754 -0.7272840738296509 -0.27364251017570496 -0.08222682029008865 0.05162744224071503 -0.15501649677753448 -35.431217193603516 24.560792922973633 -23.882328033447266 24.913143157958984 -18.621231079101562 -41.9295654296875 -0.0020038255024701357 -10.177225112915039 1.7277687788009644 0.0562187023460865 -5.151194636709988e-05 0.029002448543906212 -0.03593256324529648 -0.25581052899360657 -0.010170048102736473 -0.16845881938934326 -0.08217556029558182 0.09723958373069763 -7.0477681159973145 5.12720251083374 -0.4230984151363373 0.047885823994874954 0.02601534128189087 0.14886996150016785 -2.597641706466675 0.9910513162612915 -0.16358117759227753 -0.13429085910320282 0.22058533132076263 -0.05356061831116676 -9.416634559631348 0.6465272903442383 -0.15358538925647736 -0.10956926643848419 0.25947123765945435 -0.11651154607534409 -1.8275619745254517 -0.7067244648933411 0.13670764863491058 -0.01455731876194477 -0.2754429578781128 0.03528819978237152 -16.66354751586914 -29.709346771240234 -13.448827743530273 -0.7065041065216064 46.78281021118164 1.6211004257202148 -3.14900803565979 -8.777498245239258 -7.494460582733154 -0.21804313361644745 -0.10368333011865616 0.10702479630708694 19.834762573242188 -29.173259735107422 14.931849479675293 0.9392309188842773 45.747093200683594 -1.815497875213623 3.074949026107788 -9.268660545349121 11.15911865234375
0.0419124960899353 69.39671039581299 0.06596026942133904 -4.502216815948486 -0.22243428230285645 4.420254707336426 -2.9303436279296875 15.415046691894531 3.9866902828216553 3.1857497692108154 -10.374289512634277 1.105569839477539 -6.054315090179443 16.68158531188965 -4.61478853225708 9.776841163635254 -25.91983985900879 -6.728328227996826 0.024723922833800316 -0.24967661499977112 -0.24125301837921143 -0.01328897662460804 0.08728200942277908 -0.022154299542307854 0.09012272208929062 -0.16468635201454163 0.0788685530424118 48.568153381347656 38.23445510864258 16.919599533081055 -28.881961822509766 -30.325164794921875 65.94583892822266 -0.18043385446071625 -11.538604736328125 -1.4136017560958862 -0.1095997765660286 0.02962992526590824 -0.21333631873130798 -0.0999957025051117 -0.05210264399647713 -0.23970632255077362 -0.017225585877895355 -0.03866465762257576 -0.005244086962193251 8.6554594039917 6.128509521484375 0.42617878317832947 0.007699177134782076 -0.20164234936237335 0.17663612961769104 2.8879053592681885 1.0081675052642822 0.18902018666267395 -0.21075205504894257 0.007290133275091648 0.1964019238948822 11.34420108795166 0.9647538065910339 -0.09086134284734726 0.023558897897601128 0.11224830895662308 -0.05717869848012924 2.265047550201416 -0.6964151859283447 -0.22577114403247833 -0.15140622854232788 0.10189022123813629 0.07500418275594711 -55.351844787597656 40.36668395996094 -27.829023361206055 28.112646102905273 -27.397212982177734 -61.624717712402344 0.3956463038921356 -11.00290584564209 1.916129231452942 0.029153482988476753 0.011562860570847988 0.09055838733911514 0.05017322301864624 0.2880496084690094 -0.113462895154953 0.08416114747524261 0.05562588572502136 0.042076773941516876 -8.551344871520996 5.987040996551514 -0.5132452249526978 -0.17954951524734497 -0.13899508118629456 0.009592271409928799 -3.151512622833252 0.7951161861419678 -0.10840630531311035 0.13325078785419464 -0.11351986974477768 0.13563935458660126 -11.0382719039917 0.762904942035675 -0.13916409015655518 0.20620207488536835 -0.18340924382209778 0.17770454287528992 -2.7182092666625977 -0.532465398311615 0.21040642261505127 0.27563098073005676 -0.07076387852430344 0.12078460305929184 -26.384170532226562 -40.90849304199219 -21.933162689208984 -2.145900249481201 68.17182922363281 3.459960460662842 -3.914463520050049 -11.309532165527344 -11.316291809082031 0.24901777505874634 -0.0842893123626709 -0.031033949926495552 31.289396286010742 -39.91316604614258 23.842628479003906 1.7778407335281372 68.50222778320312 -3.3625049591064453 4.909817695617676 -11.53977108001709 14.555075645446777
0.12038331478834152 61.09355688095093 0.8022965863347054 -1.5030874013900757 8.997493743896484 3.183943033218384 -5.065946578979492 15.326950073242188 2.8080174922943115 3.0661115646362305 -9.945066452026367 0.9027686715126038 -6.1437835693359375 15.010113716125488 -6.228221893310547 9.649657249450684 -24.765581130981445 -11.213841438293457 -0.12752345204353333 0.2923380434513092 -0.22523607313632965 -0.193831667304039 0.36050164699554443 0.21582180261611938 -0.2441195845603943 0.20546211302280426 -0.11251383274793625 34.071861267089844 21.90676498413086 32.15580368041992 -24.371843338012695 -22.22852325439453 58.454471588134766 0.031964678317308426 6.9732136726379395 1.5465365648269653 -0.0641225278377533 -0.1012180894613266 -0.16794995963573456 0.0018912391969934106 -0.08390694856643677 -0.17399460077285767 0.2605374753475189 0.09969361871480942 0.221963033080101 7.030516624450684 5.175901889801025 0.2771977186203003 0.21568633615970612 -0.1039770171046257 -0.14963889122009277 2.7460389137268066 0.9344404935836792 0.2772239148616791 0.08829568326473236 0.20769084990024567 0.1257287859916687 9.808783531188965 0.7118834257125854 0.41091543436050415 0.09082955121994019 0.0004961290396749973 0.07554182410240173 1.98955500125885 -0.676665186882019 0.17124293744564056 -0.3112461566925049 -0.06914166361093521 -0.7130921483039856 -48.61457061767578 53.80699920654297 -28.145404815673828 27.739688873291016 -32.624359130859375 -73.79692840576172 2.016557216644287 -37.04891586303711 6.007775783538818 -0.18802392482757568 -0.24635420739650726 0.2563914358615875 -0.04372338950634003 0.12374281138181686 0.038291703909635544 -0.10179875791072845 -0.008419852703809738 0.22089987993240356 -7.538212299346924 5.245288372039795 -0.6094586849212646 0.029968734830617905 -0.10781712830066681 0.183940127491951 -2.793368339538574 1.0625419616699219 -0.16051191091537476 0.17703396081924438 -0.09671594947576523 0.046896398067474365 -9.639991760253906 0.35958173871040344 -0.21422888338565826 -0.24392269551753998 0.057201411575078964 0.07671882957220078 -1.9503350257873535 -0.7770926356315613 -0.06927745044231415 -0.10875595360994339 -0.07586205750703812 0.11206961423158646 -33.52677917480469 -51.38772964477539 -29.19839096069336 -2.2237563133239746 71.47657012939453 2.8461339473724365 -0.9627716541290283 -5.756537914276123 -3.4669158458709717 0.3007522225379944 -0.37222379446029663 -0.3664119243621826 19.45821762084961 -34.90955352783203 14.334341049194336 1.4973474740982056 66.90987396240234 -2.9532716274261475 5.7312541007995605 -13.66860580444336 18.512462615966797
-0.4238900728523731 62.378400564193726 1.9291110336780548 -3.0252885818481445 4.512591361999512 2.521803140640259 -3.6781702041625977 18.38492202758789 1.9430254697799683 3.0297629833221436 -11.54445743560791 0.44314485788345337 -6.205726623535156 15.1612548828125 -6.113724708557129 9.8236665725708 -29.22503662109375 -11.29024887084961 -0.07291208952665329 0.3251449763774872 0.6606194972991943 -0.16740180552005768 0.5238125324249268 -0.46279972791671753 -0.06696732342243195 0.6985054016113281 0.6558266878128052 24.77871322631836 4.04348087310791 44.40370559692383 -23.882551193237305 -19.294532775878906 48.294429779052734 -1.0761818885803223 25.65652084350586 3.9116737842559814 -0.5950928926467896 -0.2037649303674698 -0.25992220640182495 0.1563102751970291 -0.28128790855407715 0.29439544677734375 0.30252695083618164 0.4253711998462677 0.7213068604469299 7.215243339538574 6.220447063446045 0.6824844479560852 0.3353816568851471 0.08041561394929886 -0.4193336069583893 2.947779417037964 0.6119433045387268 -0.137485533952713 -0.5117970108985901 0.8780733346939087 0.46152013540267944 11.201909065246582 0.8290315270423889 0.1722104698419571 -0.07345560193061829 -0.4056684672832489 -0.07333121448755264 2.3348605632781982 -0.8125916719436646 0.06602434068918228 -0.4642024040222168 0.25380685925483704 -0.45722612738609314 -10.687482833862305 56.882911682128906 -66.79638671875 28.086219787597656 -39.611602783203125 -82.41973114013672 8.156813621520996 -60.122962951660156 13.466095924377441 -0.030713802203536034 0.19248519837856293 0.07011749595403671 -0.015850290656089783 0.16528120636940002 0.8240376710891724 -0.43092185258865356 -0.21306855976581573 0.3697352409362793 -8.56619930267334 5.859491348266602 -0.38502487540245056 -0.3365827202796936 0.028545673936605453 0.21180282533168793 -2.491556167602539 0.9157910943031311 -0.10445025563240051 -0.6418609023094177 0.4122512936592102 1.0166231393814087 -9.362268447875977 0.6306362152099609 -0.578912079334259 -0.4535273611545563 0.027875833213329315 0.6973552107810974 -2.799473762512207 -0.8950382471084595 0.158867746591568 0.32356545329093933 0.11415337026119232 0.11561000347137451 -35.46776580810547 -57.99028396606445 -35.26698303222656 -0.846971333026886 72.13494110107422 1.684613823890686 -2.0003230571746826 -0.62066650390625 -5.390061378479004 0.020461903885006905 -0.21925711631774902 -0.21669363975524902 12.214093208312988 -36.571598052978516 12.308146476745605 2.7903764247894287 70.8915023803711 -4.5959625244140625 7.916049003601074 -16.627243041992188 21.835071563720703
